<?xml version="1.0" standalone="no"?>
<!DOCTYPE svg PUBLIC "-//W3C//DTD SVG 20010904//EN"
 "http://www.w3.org/TR/2001/REC-SVG-20010904/DTD/svg10.dtd">
<svg version="1.0" xmlns="http://www.w3.org/2000/svg"
 width="1280.000000pt" height="653.000000pt" viewBox="0 0 1280.000000 653.000000"
 preserveAspectRatio="xMidYMid meet">
<metadata>
Created by potrace 1.15, written by Peter Selinger 2001-2017
</metadata>
<g transform="translate(0.000000,653.000000) scale(0.100000,-0.100000)"
fill="#000000" stroke="none">
<path d="M6485 6525 c-22 -2 -285 -9 -585 -15 -2181 -43 -4155 -111 -4935
-170 -295 -23 -369 -32 -402 -52 -118 -71 -248 -359 -327 -728 -51 -241 -67
-369 -147 -1165 l-72 -720 19 -305 c10 -170 18 -435 19 -600 0 -278 -1 -301
-24 -400 -21 -92 -25 -130 -25 -300 0 -219 14 -335 75 -602 l20 -87 77 -25
c87 -29 197 -47 422 -72 85 -9 159 -20 163 -24 5 -4 13 -43 18 -86 32 -263
160 -523 323 -655 73 -60 158 -103 245 -125 80 -20 298 -12 406 16 189 48 373
194 481 380 l47 80 96 0 c104 0 1479 36 1702 44 l136 5 43 -85 c30 -62 61
-105 109 -154 64 -65 68 -67 126 -73 216 -23 483 -29 1175 -24 l744 5 24 27
c12 15 26 41 29 57 l6 31 111 -7 c61 -4 174 -12 251 -17 77 -4 184 -9 238 -9
90 0 97 1 97 20 0 18 7 20 80 20 l81 0 6 -32 c3 -17 23 -79 42 -137 95 -276
287 -475 507 -527 81 -19 288 -13 391 11 183 43 373 183 478 354 31 50 43 61
65 61 14 0 163 -11 331 -25 380 -32 603 -41 839 -35 l185 5 181 83 182 83 127
7 127 7 30 -60 c97 -194 267 -346 433 -390 79 -20 282 -20 383 1 247 51 470
239 573 484 l28 65 134 10 c116 9 141 15 193 40 71 36 95 75 148 236 60 184
80 330 80 589 0 235 -12 360 -55 538 -52 219 -150 406 -239 458 -18 11 -34 32
-41 54 -24 71 -108 239 -189 375 -106 179 -214 337 -409 600 -292 392 -280
374 -286 424 -24 180 -36 197 -197 266 -38 16 -60 37 -114 110 -101 134 -400
509 -543 680 -598 714 -1053 1148 -1353 1290 -165 78 -634 140 -1328 175 -189
10 -1474 22 -1555 15z m-2292 -5592 c-13 -2 -35 -2 -50 0 -16 2 -5 4 22 4 28
0 40 -2 28 -4z m-406 -9 c-3 -3 -12 -4 -19 -1 -8 3 -5 6 6 6 11 1 17 -2 13 -5z
m-359 -11 c-10 -2 -26 -2 -35 0 -10 3 -2 5 17 5 19 0 27 -2 18 -5z m-381 -9
c-3 -3 -12 -4 -19 -1 -8 3 -5 6 6 6 11 1 17 -2 13 -5z m-359 -11 c-10 -2 -26
-2 -35 0 -10 3 -2 5 17 5 19 0 27 -2 18 -5z"/>
</g>
</svg>
